<mxfile>
    <diagram id="9iU-Un5JDcwW9RsWbMVT" name="Page-1">
        <mxGraphModel dx="1534" dy="1009" grid="1" gridSize="10" guides="1" tooltips="1" connect="1" arrows="1" fold="1" page="1" pageScale="1" pageWidth="850" pageHeight="1100" math="0" shadow="0">
            <root>
                <mxCell id="0"/>
                <mxCell id="1" parent="0"/>
                <mxCell id="67" value="" style="rounded=1;whiteSpace=wrap;html=1;" vertex="1" parent="1">
                    <mxGeometry x="255" y="30" width="435" height="280" as="geometry"/>
                </mxCell>
                <mxCell id="68" value="Client Browser" style="rounded=1;whiteSpace=wrap;html=1;" vertex="1" parent="1">
                    <mxGeometry x="70" y="70" width="120" height="60" as="geometry"/>
                </mxCell>
                <mxCell id="69" style="edgeStyle=orthogonalEdgeStyle;rounded=0;orthogonalLoop=1;jettySize=auto;html=1;exitX=0.5;exitY=0;exitDx=0;exitDy=0;entryX=0.5;entryY=1;entryDx=0;entryDy=0;" edge="1" parent="1" source="70" target="68">
                    <mxGeometry relative="1" as="geometry"/>
                </mxCell>
                <mxCell id="70" value="NEST Monitor" style="rounded=1;whiteSpace=wrap;html=1;" vertex="1" parent="1">
                    <mxGeometry x="70" y="210" width="120" height="60" as="geometry"/>
                </mxCell>
                <mxCell id="71" value="NEST Server" style="text;html=1;strokeColor=none;fillColor=none;align=center;verticalAlign=middle;whiteSpace=wrap;rounded=0;" vertex="1" parent="1">
                    <mxGeometry x="427.5" y="30" width="90" height="20" as="geometry"/>
                </mxCell>
                <mxCell id="72" value="" style="group" vertex="1" connectable="0" parent="1">
                    <mxGeometry x="500" y="70" width="160" height="160" as="geometry"/>
                </mxCell>
                <mxCell id="73" value="" style="rounded=0;whiteSpace=wrap;html=1;" vertex="1" parent="72">
                    <mxGeometry x="-5" y="50" width="170" height="110" as="geometry"/>
                </mxCell>
                <mxCell id="74" value="Helper Components" style="rounded=0;whiteSpace=wrap;html=1;" vertex="1" parent="72">
                    <mxGeometry x="-5" y="50" width="170" height="20" as="geometry"/>
                </mxCell>
                <mxCell id="75" value="NEST Controller" style="rounded=1;whiteSpace=wrap;html=1;" vertex="1" parent="72">
                    <mxGeometry x="25" y="80" width="110" height="30" as="geometry"/>
                </mxCell>
                <mxCell id="76" value="Drone Controller" style="rounded=1;whiteSpace=wrap;html=1;" vertex="1" parent="72">
                    <mxGeometry x="25" y="120" width="110" height="30" as="geometry"/>
                </mxCell>
                <mxCell id="77" value="API Server" style="rounded=1;whiteSpace=wrap;html=1;" vertex="1" parent="72">
                    <mxGeometry x="20" width="110" height="30" as="geometry"/>
                </mxCell>
                <mxCell id="78" value="" style="endArrow=classic;startArrow=classic;html=1;entryX=1;entryY=0.5;entryDx=0;entryDy=0;exitX=1;exitY=0.25;exitDx=0;exitDy=0;" edge="1" parent="72" source="75" target="77">
                    <mxGeometry width="50" height="50" relative="1" as="geometry">
                        <mxPoint x="130" y="100" as="sourcePoint"/>
                        <mxPoint x="170" y="390" as="targetPoint"/>
                        <Array as="points">
                            <mxPoint x="180" y="88"/>
                            <mxPoint x="180" y="15"/>
                        </Array>
                    </mxGeometry>
                </mxCell>
                <mxCell id="79" value="" style="endArrow=classic;html=1;exitX=1;exitY=0.75;exitDx=0;exitDy=0;entryX=1;entryY=0.25;entryDx=0;entryDy=0;" edge="1" parent="72" source="75" target="76">
                    <mxGeometry width="50" height="50" relative="1" as="geometry">
                        <mxPoint x="125" y="436" as="sourcePoint"/>
                        <mxPoint x="175" y="386" as="targetPoint"/>
                        <Array as="points">
                            <mxPoint x="155" y="103"/>
                            <mxPoint x="155" y="128"/>
                        </Array>
                    </mxGeometry>
                </mxCell>
                <mxCell id="80" value="" style="group" vertex="1" connectable="0" parent="1">
                    <mxGeometry x="300" y="70" width="170" height="210" as="geometry"/>
                </mxCell>
                <mxCell id="81" value="" style="group" vertex="1" connectable="0" parent="80">
                    <mxGeometry y="20" width="170" height="190" as="geometry"/>
                </mxCell>
                <mxCell id="82" value="" style="rounded=0;whiteSpace=wrap;html=1;" vertex="1" parent="81">
                    <mxGeometry y="30" width="170" height="150" as="geometry"/>
                </mxCell>
                <mxCell id="83" value="Helper Components" style="rounded=0;whiteSpace=wrap;html=1;" vertex="1" parent="81">
                    <mxGeometry y="30" width="170" height="20" as="geometry"/>
                </mxCell>
                <mxCell id="84" value="" style="group" vertex="1" connectable="0" parent="81">
                    <mxGeometry x="20" y="100" width="130" height="90" as="geometry"/>
                </mxCell>
                <mxCell id="85" value="" style="rounded=0;whiteSpace=wrap;html=1;" vertex="1" parent="84">
                    <mxGeometry width="130" height="70" as="geometry"/>
                </mxCell>
                <mxCell id="86" value="Cameras" style="rounded=1;whiteSpace=wrap;html=1;" vertex="1" parent="84">
                    <mxGeometry x="10" y="30" width="110" height="30" as="geometry"/>
                </mxCell>
                <mxCell id="87" value="Hardware Components" style="rounded=0;whiteSpace=wrap;html=1;" vertex="1" parent="84">
                    <mxGeometry width="130" height="20" as="geometry"/>
                </mxCell>
                <mxCell id="88" value="Video Factory" style="rounded=1;whiteSpace=wrap;html=1;" vertex="1" parent="81">
                    <mxGeometry x="30" y="60" width="110" height="30" as="geometry"/>
                </mxCell>
                <mxCell id="89" value="" style="endArrow=classic;html=1;exitX=1;exitY=0.5;exitDx=0;exitDy=0;entryX=1;entryY=0.75;entryDx=0;entryDy=0;" edge="1" parent="81" source="86" target="88">
                    <mxGeometry width="50" height="50" relative="1" as="geometry">
                        <mxPoint x="130" y="230" as="sourcePoint"/>
                        <mxPoint x="180" y="180" as="targetPoint"/>
                        <Array as="points">
                            <mxPoint x="160" y="145"/>
                            <mxPoint x="160" y="83"/>
                        </Array>
                    </mxGeometry>
                </mxCell>
                <mxCell id="90" value="Video Server" style="rounded=1;whiteSpace=wrap;html=1;" vertex="1" parent="80">
                    <mxGeometry x="27.5" width="110" height="30" as="geometry"/>
                </mxCell>
                <mxCell id="91" value="" style="endArrow=classic;html=1;exitX=1;exitY=0.25;exitDx=0;exitDy=0;entryX=1;entryY=0.5;entryDx=0;entryDy=0;" edge="1" parent="80" source="88" target="90">
                    <mxGeometry width="50" height="50" relative="1" as="geometry">
                        <mxPoint x="130" y="250" as="sourcePoint"/>
                        <mxPoint x="180" y="200" as="targetPoint"/>
                        <Array as="points">
                            <mxPoint x="180" y="88"/>
                            <mxPoint x="180" y="15"/>
                        </Array>
                    </mxGeometry>
                </mxCell>
                <mxCell id="92" value="Drone" style="rounded=1;whiteSpace=wrap;html=1;" vertex="1" parent="1">
                    <mxGeometry x="760" y="210" width="120" height="60" as="geometry"/>
                </mxCell>
                <mxCell id="93" value="" style="endArrow=classic;startArrow=classic;html=1;exitX=1;exitY=0.25;exitDx=0;exitDy=0;entryX=0;entryY=0.5;entryDx=0;entryDy=0;" edge="1" parent="1" source="68" target="77">
                    <mxGeometry width="50" height="50" relative="1" as="geometry">
                        <mxPoint x="420" y="510" as="sourcePoint"/>
                        <mxPoint x="470" y="460" as="targetPoint"/>
                        <Array as="points">
                            <mxPoint x="210" y="85"/>
                            <mxPoint x="240" y="60"/>
                            <mxPoint x="470" y="60"/>
                            <mxPoint x="500" y="85"/>
                        </Array>
                    </mxGeometry>
                </mxCell>
                <mxCell id="94" value="" style="endArrow=classic;html=1;exitX=0;exitY=0.5;exitDx=0;exitDy=0;entryX=1;entryY=0.75;entryDx=0;entryDy=0;" edge="1" parent="1" source="90" target="68">
                    <mxGeometry width="50" height="50" relative="1" as="geometry">
                        <mxPoint x="420" y="510" as="sourcePoint"/>
                        <mxPoint x="470" y="460" as="targetPoint"/>
                        <Array as="points">
                            <mxPoint x="250" y="85"/>
                            <mxPoint x="210" y="115"/>
                        </Array>
                    </mxGeometry>
                </mxCell>
                <mxCell id="95" value="" style="endArrow=classic;startArrow=classic;html=1;exitX=1;exitY=0.75;exitDx=0;exitDy=0;entryX=0;entryY=0.5;entryDx=0;entryDy=0;" edge="1" parent="1" source="76" target="92">
                    <mxGeometry width="50" height="50" relative="1" as="geometry">
                        <mxPoint x="430" y="510" as="sourcePoint"/>
                        <mxPoint x="790" y="180" as="targetPoint"/>
                        <Array as="points">
                            <mxPoint x="700" y="213"/>
                            <mxPoint x="740" y="240"/>
                        </Array>
                    </mxGeometry>
                </mxCell>
                <mxCell id="96" value="Programmable Logic Controller" style="rounded=1;whiteSpace=wrap;html=1;" vertex="1" parent="1">
                    <mxGeometry x="760" y="70" width="120" height="60" as="geometry"/>
                </mxCell>
                <mxCell id="97" value="" style="endArrow=classic;startArrow=classic;html=1;exitX=0;exitY=0.5;exitDx=0;exitDy=0;entryX=1;entryY=0.5;entryDx=0;entryDy=0;" edge="1" parent="1" source="96" target="75">
                    <mxGeometry width="50" height="50" relative="1" as="geometry">
                        <mxPoint x="420" y="140" as="sourcePoint"/>
                        <mxPoint x="470" y="90" as="targetPoint"/>
                        <Array as="points">
                            <mxPoint x="740" y="100"/>
                            <mxPoint x="700" y="165"/>
                        </Array>
                    </mxGeometry>
                </mxCell>
            </root>
        </mxGraphModel>
    </diagram>
</mxfile>